<svg width="75" height="77" viewBox="0 0 75 77" fill="none" xmlns="http://www.w3.org/2000/svg">
<path d="M0 57.761C0 69.103 5.618 76.523 16.96 76.523C28.408 76.523 34.026 69.103 34.026 57.761V19.495C34.026 8.15302 28.408 0.83902 16.96 0.83902C5.618 0.83902 0 8.15302 0 19.495V57.761ZM8.162 19.071C8.162 12.287 11.024 8.25902 16.96 8.25902C23.002 8.25902 25.758 12.287 25.758 19.071V58.291C25.758 64.969 23.002 68.997 16.96 68.997C11.024 68.997 8.162 64.969 8.162 58.291V19.071Z" fill="#635854"/>
<path d="M47.5592 75.781H55.8272L74.9072 8.78902V1.58102H41.3052V9.00102H66.5332L47.5592 75.781Z" fill="#635854"/>
</svg>
