<svg width="15" height="14" viewBox="0 0 15 14" fill="none" xmlns="http://www.w3.org/2000/svg">
<path fill-rule="evenodd" clip-rule="evenodd" d="M7.783 0.125C6.69674 0.124794 5.62561 0.377329 4.65585 0.862272C3.68608 1.34722 2.84478 2.05102 2.19966 2.91702C1.55455 3.78302 1.12365 4.78701 0.941663 5.84818C0.759674 6.90934 0.831679 7.99803 1.15188 9.02658C1.47208 10.0551 2.03153 10.9948 2.78519 11.77C3.53885 12.5451 4.46566 13.1341 5.49101 13.4895C6.51635 13.8449 7.61158 13.9567 8.68851 13.816C9.76545 13.6753 10.794 13.286 11.6914 12.6795L11.7112 12.6653L10.7762 11.5886L10.7611 11.5988C9.68524 12.284 8.40281 12.578 7.13257 12.4308C5.86233 12.2836 4.68298 11.7043 3.79569 10.7916C2.90841 9.87894 2.36817 8.6895 2.26712 7.42619C2.16608 6.16288 2.51049 4.90397 3.2416 3.8642C3.97272 2.82443 5.04525 2.06822 6.27623 1.72458C7.50721 1.38094 8.82038 1.47115 9.99173 1.97982C11.1631 2.48849 12.12 3.38411 12.6994 4.5139C13.2787 5.64369 13.4445 6.93766 13.1685 8.17506C13.1372 8.42746 13.0121 8.65924 12.8177 8.82517C12.6232 8.9911 12.3733 9.07928 12.1168 9.07249C11.9993 9.06455 11.8845 9.03352 11.7792 8.98121C11.6739 8.92889 11.5801 8.85634 11.5033 8.76777C11.4266 8.6792 11.3684 8.57639 11.3321 8.46531C11.2959 8.35424 11.2823 8.23713 11.2921 8.12079V7C11.2932 6.19383 11.0119 5.41228 10.4962 4.7887C9.98062 4.16512 9.2626 3.73816 8.46471 3.58067C7.66682 3.42317 6.8385 3.54491 6.12109 3.9251C5.40368 4.30529 4.84163 4.92037 4.53084 5.6654C4.22006 6.41044 4.1798 7.23924 4.41693 8.01041C4.65407 8.78157 5.1539 9.44731 5.83114 9.89402C6.50839 10.3407 7.32108 10.5407 8.13054 10.4599C8.94001 10.3791 9.69609 10.0224 10.2698 9.4508C10.4585 9.74301 10.7133 9.98758 11.0141 10.1651C11.3149 10.3426 11.6533 10.4481 12.0025 10.4733C12.0644 10.4788 12.1271 10.4812 12.1898 10.4812C12.6985 10.4798 13.1929 10.3141 13.5979 10.0092C14.0278 9.67661 14.3417 9.21893 14.4956 8.70046C14.5226 8.61316 14.575 8.41102 14.575 8.41102V8.40316C14.6784 7.94262 14.7274 7.47174 14.7211 7C14.719 5.17727 13.9873 3.4298 12.6866 2.14094C11.3859 0.852079 9.62244 0.127082 7.783 0.125ZM9.51806 8.14879C9.74735 7.80875 9.86973 7.40896 9.86973 7C9.8691 6.45178 9.64905 5.9262 9.25785 5.53855C8.86664 5.15091 8.33624 4.93285 7.783 4.93223C7.37028 4.93223 6.96683 5.0535 6.62367 5.28071C6.2805 5.50792 6.01304 5.83086 5.8551 6.2087C5.69716 6.58653 5.65584 7.00229 5.73635 7.4034C5.81687 7.80451 6.01561 8.17295 6.30745 8.46213C6.59928 8.75132 6.9711 8.94825 7.37589 9.02804C7.78068 9.10782 8.20025 9.06687 8.58156 8.91037C8.96286 8.75386 9.28876 8.48883 9.51806 8.14879Z" fill="#635854"/>
</svg>
