<svg width="10" height="14" viewBox="0 0 10 14" fill="none" xmlns="http://www.w3.org/2000/svg">
<path fill-rule="evenodd" clip-rule="evenodd" d="M4.88953 7.08465C2.95676 7.07817 1.3719 5.50175 1.38317 3.59713C1.3943 1.67149 2.98018 0.119685 4.93198 0.125014C6.88773 0.130198 8.45752 1.70432 8.44771 3.64998C8.43776 5.55071 6.84192 7.09128 4.88953 7.08465ZM4.91793 1.90233C5.87722 1.90319 6.64271 2.65605 6.64608 3.60174C6.6493 4.54728 5.88585 5.30503 4.92686 5.30835C3.96494 5.3118 3.19285 4.56427 3.18568 3.62219C3.17821 2.66786 3.95059 1.90132 4.91793 1.90233Z" fill="#635854"/>
<path d="M4.22959 9.80996C3.14619 9.69879 2.16934 9.43627 1.333 8.7927C1.3122 8.77666 1.29127 8.76073 1.27033 8.74479C1.18678 8.68121 1.1031 8.61753 1.02738 8.54602C0.66132 8.20012 0.624436 7.80396 0.914096 7.39571C1.16189 7.04635 1.57787 6.95289 2.01024 7.15349C2.09396 7.19237 2.17373 7.2409 2.25013 7.29303C3.80879 8.34672 5.94999 8.37581 7.5145 7.34041C7.66951 7.22348 7.83519 7.12815 8.02723 7.07947C8.40061 6.98515 8.74881 7.12008 8.94919 7.4415C9.17811 7.80857 9.17518 8.16686 8.89313 8.45184C8.46047 8.88876 7.94014 9.20485 7.36199 9.42547C6.81531 9.63399 6.21652 9.73896 5.62388 9.80866C5.64586 9.83219 5.66498 9.85279 5.68215 9.87128L5.68311 9.87231L5.68394 9.87321C5.73564 9.92891 5.76969 9.96558 5.81138 10.0068C6.10463 10.2967 6.39834 10.5861 6.69206 10.8756C7.20434 11.3804 7.71663 11.8852 8.22643 12.3924C8.4997 12.6643 8.55678 13.0014 8.40632 13.3176C8.2418 13.6633 7.87354 13.8906 7.51246 13.8663C7.28368 13.8508 7.10526 13.7387 6.94675 13.5816C6.74775 13.3846 6.54752 13.1888 6.34731 12.993C5.93654 12.5912 5.52581 12.1895 5.1258 11.7777C4.95265 11.5995 4.86936 11.6332 4.71656 11.7879C4.10562 12.4067 3.48473 13.016 2.86019 13.6218C2.57975 13.8938 2.24603 13.9428 1.92081 13.7874C1.57509 13.6225 1.3551 13.2753 1.37208 12.9264C1.38379 12.6904 1.50176 12.5101 1.66642 12.3483C2.3076 11.7184 2.94735 11.0872 3.58698 10.4561L3.58727 10.4558L3.58809 10.455L4.05147 9.99789C4.08381 9.9658 4.11482 9.93251 4.15174 9.89289C4.1748 9.86813 4.20016 9.84091 4.22959 9.80996Z" fill="#635854"/>
</svg>
