<svg width="21" height="14" viewBox="0 0 21 14" fill="none" xmlns="http://www.w3.org/2000/svg">
<path d="M19.2634 1.45C18.7209 0.485 18.1322 0.3075 16.9334 0.24C15.7359 0.15875 12.7247 0.125 10.1159 0.125C7.50215 0.125 4.48965 0.15875 3.2934 0.23875C2.09715 0.3075 1.50715 0.48375 0.959653 1.45C0.400903 2.41375 0.113403 4.07375 0.113403 6.99625C0.113403 6.99875 0.113403 7 0.113403 7C0.113403 7.0025 0.113403 7.00375 0.113403 7.00375V7.00625C0.113403 9.91625 0.400903 11.5887 0.959653 12.5425C1.50715 13.5075 2.0959 13.6825 3.29215 13.7638C4.48965 13.8338 7.50215 13.875 10.1159 13.875C12.7247 13.875 15.7359 13.8337 16.9347 13.765C18.1334 13.6837 18.7222 13.5088 19.2647 12.5438C19.8284 11.59 20.1134 9.9175 20.1134 7.0075C20.1134 7.0075 20.1134 7.00375 20.1134 7.00125C20.1134 7.00125 20.1134 6.99875 20.1134 6.9975C20.1134 4.07375 19.8284 2.41375 19.2634 1.45ZM7.6134 10.75V3.25L13.8634 7L7.6134 10.75Z" fill="#635854"/>
</svg>
